HIERARCHY
ROOT Hips
{
	OFFSET	0.00	0.00	0.00
	CHANNELS 6 Xposition Yposition Zposition Zrotation Xrotation Yrotation
	JOINT Chest
	{
		OFFSET	0.000000	6.275751	0.000000
		CHANNELS 3 Zrotation Xrotation Yrotation
		JOINT Neck
		{
			OFFSET	0.000000	14.296947	0.000000
			CHANNELS 3 Zrotation Xrotation Yrotation
			JOINT Head
			{
				OFFSET	0.000000	2.637461	0.000000
				CHANNELS 3 Zrotation Xrotation Yrotation
				End Site
				{
					OFFSET	0.000000	4.499004	0.000000
				}
			}
		}
		JOINT LeftCollar
		{
			OFFSET	1.120000	11.362855	1.870000
			CHANNELS 3 Zrotation Xrotation Yrotation
			JOINT LeftUpArm
			{
				OFFSET	4.565688	2.019026	-1.821179
				CHANNELS 3 Zrotation Xrotation Yrotation
				JOINT LeftLowArm
				{
					OFFSET	0.219729	-10.348825	-0.061708
					CHANNELS 3 Zrotation Xrotation Yrotation
					JOINT LeftHand
					{
						OFFSET	0.087892	-10.352228	2.178217
						CHANNELS 3 Zrotation Xrotation Yrotation
						End Site
						{
							OFFSET	0.131837	-6.692379	1.711456
						}
					}
				}
			}
		}
		JOINT RightCollar
		{
			OFFSET	-1.120000	11.362855	1.870000
			CHANNELS 3 Zrotation Xrotation Yrotation
			JOINT RightUpArm
			{
				OFFSET	-4.708080	2.034554	-1.821179
				CHANNELS 3 Zrotation Xrotation Yrotation
				JOINT RightLowArm
				{
					OFFSET	-0.263676	-10.428555	-0.061708
					CHANNELS 3 Zrotation Xrotation Yrotation
					JOINT RightHand
					{
						OFFSET	0.000000	-10.255345	2.178217
						CHANNELS 3 Zrotation Xrotation Yrotation
						End Site
						{
							OFFSET	-0.140882	-6.671274	1.711456
						}
					}
				}
			}
		}
	}
	JOINT LeftUpLeg
	{
		OFFSET	3.910000	0.000000	0.000000
		CHANNELS 3 Zrotation Xrotation Yrotation
		JOINT LeftLowLeg
		{
			OFFSET	-0.441177	-17.569450	1.695613
			CHANNELS 3 Zrotation Xrotation Yrotation
			JOINT LeftFoot
			{
				OFFSET	-0.043946	-17.197315	-1.478076
				CHANNELS 3 Zrotation Xrotation Yrotation
				End Site
				{
					OFFSET	0.000000	-3.933155	5.233925
				}
			}
		}
	}
	JOINT RightUpLeg
	{
		OFFSET	-3.910000	0.000000	0.000000
		CHANNELS 3 Zrotation Xrotation Yrotation
		JOINT RightLowLeg
		{
			OFFSET	0.437741	-17.622387	1.695613
			CHANNELS 3 Zrotation Xrotation Yrotation
			JOINT RightFoot
			{
				OFFSET	0.000000	-17.140001	-1.478076
				CHANNELS 3 Zrotation Xrotation Yrotation
				End Site
				{
					OFFSET	0.000000	-4.038528	5.233925
				}
			}
		}
	}
}
MOTION
Frames: 13
Frame Time: 0.04166667
294.625244	5.922912	2.905982	-10.894188	5.451853	63.145584	8.692576	23.056925	-5.603930	5.644837	-6.081279	31.931421	-28.776377	-3.351865	-11.080962	1.305409	21.906313	-4.849060	20.268837	-44.363209	-25.332912	9.933638	-55.753357	-17.472507	-6.895176	2.550412	-1.462075	16.554180	14.382386	-4.877631	-24.873178	-32.914841	8.377673	-11.741908	-56.653648	17.442070	-14.458647	2.786532	-3.069937	16.255745	-39.978729	25.251032	-1.510651	40.917027	0.347953	-10.484811	25.107395	5.216627	0.892824	-6.835525	-10.701059	2.425149	-9.113997	11.230741	-6.563287	4.336476	6.213578	
294.714874	5.877200	2.994569	-12.613074	4.724809	60.087982	9.218701	22.467793	-4.253559	5.081646	-4.642422	33.469360	-29.309975	-3.335338	-11.319579	1.891323	17.963921	-7.413781	19.082493	-38.584759	-23.376129	10.173150	-56.325542	-17.523300	-6.686163	2.545207	-1.417964	14.618797	12.273231	-3.051461	-23.452753	-29.425308	9.767426	-12.208467	-56.844231	18.219069	-13.877106	2.754745	-2.948723	19.871241	-38.922611	27.377329	-1.670668	32.238930	-0.348019	-11.796518	22.659676	5.476275	2.259480	-7.128260	-7.951536	2.461534	-9.108898	11.627607	-5.755352	3.754721	6.004768	
295.892944	5.851026	2.898059	-14.505774	5.115923	58.019840	9.902202	21.974108	-4.793231	4.219033	-3.897256	35.621559	-29.733078	-3.457020	-11.585263	1.080656	15.946105	-8.123266	18.522207	-35.917446	-21.651423	10.682979	-56.883636	-18.098389	-6.696183	2.545636	-1.420039	13.101031	11.890408	-2.137763	-22.673702	-28.669724	11.422527	-12.035791	-57.580490	17.175533	-12.675435	2.696992	-2.697660	19.997238	-37.119732	23.051031	-1.872513	19.404474	-1.915540	-14.189625	21.299076	6.370967	2.583403	-8.118593	-6.348219	2.521792	-9.098450	12.304023	-5.940346	2.933786	5.952544	
296.403809	5.790499	2.730989	-16.103638	5.521039	55.280071	10.218763	22.460016	-5.008777	3.635324	-3.713643	37.517525	-29.864559	-3.762392	-11.817910	-0.372968	16.104725	-7.477549	18.851530	-36.285843	-20.177870	10.973315	-57.137905	-18.459766	-5.586886	2.520875	-1.185488	12.736886	12.864174	-2.215195	-22.996695	-29.975662	12.180921	-11.785480	-57.747425	16.536451	-13.555577	2.739276	-2.881724	20.478966	-32.896687	12.846922	-1.428453	3.743685	0.221924	-18.377626	23.080528	8.932345	2.658379	-8.859995	-3.778449	2.527789	-9.099405	12.356609	-5.316005	2.083927	5.773148	
297.698456	5.643099	2.489699	-18.131285	5.681642	51.775032	11.029428	22.741100	-5.087424	2.935562	-3.322155	40.175011	-29.851755	-4.158392	-12.031725	-1.984078	16.107040	-6.851512	19.119234	-36.336288	-18.953203	12.476551	-58.140701	-20.484512	-6.667049	2.544786	-1.413903	12.137055	14.047236	-2.090968	-23.630272	-31.134916	12.906322	-11.609108	-58.137875	15.857487	-13.268498	2.725244	-2.821755	24.363939	-28.760065	3.612268	-0.842859	-9.164483	5.218387	-21.003044	28.771065	12.128761	3.196929	-9.750069	-0.956177	2.576788	-9.088479	12.933273	-4.337527	1.408388	5.579407	
298.869354	5.448531	2.215479	-20.013321	5.751285	47.693218	11.870501	23.092684	-6.588673	1.997568	-2.291490	44.696365	-30.124865	-4.982304	-12.626170	-4.086697	15.646019	-5.841811	19.774986	-35.436256	-16.372374	13.010607	-58.541737	-21.113523	-5.613411	2.520690	-1.191270	10.143040	14.759716	-0.149404	-23.613258	-31.371613	14.374984	-11.784363	-58.372574	15.967111	-12.722119	2.698461	-2.707415	27.529690	-31.712217	5.856269	-0.908232	-3.636666	4.293777	-18.457970	28.638361	10.508756	3.665657	-10.339625	2.481416	2.626888	-9.076947	13.536352	-3.097589	0.318253	5.354038	
300.082520	5.207775	1.921494	-21.700893	5.858319	43.449230	9.972784	24.855196	-3.402203	4.152400	-3.145846	45.497185	-31.085106	-4.387830	-12.776839	-4.338883	22.055603	-4.393878	23.318739	-42.803699	-14.804770	13.201977	-59.054958	-20.922163	-5.290200	2.514756	-1.122740	16.226770	19.577986	-3.992429	-28.920237	-37.549492	13.409011	-11.993263	-58.333355	16.390810	-12.749220	2.699879	-2.713093	29.234091	-33.974247	5.810814	0.020747	5.213440	9.479911	-17.186304	21.472651	7.878481	3.887449	-10.746114	6.348491	2.641330	-9.074142	13.723343	-1.673962	-0.808170	5.157816	
301.071808	4.941605	1.585631	-23.803368	6.046401	39.997665	10.193510	25.788538	-4.440252	4.191672	-3.301700	49.000614	-31.451450	-4.997482	-13.321819	-5.010669	21.653807	-2.766908	23.354389	-43.284920	-13.223773	10.824552	-58.903175	-16.685749	-8.269538	2.589164	-1.751714	15.369198	19.033972	-3.291625	-28.174751	-37.380966	15.876023	-12.988847	-58.354000	18.266193	-11.877110	2.660020	-2.530195	31.185740	-35.422649	11.518734	0.490711	12.525649	9.585670	-13.828342	11.488150	3.992169	4.309966	-11.591352	9.956375	2.616229	-9.082159	13.434685	-0.277679	-1.882041	5.021016	
301.463531	4.874406	1.357684	-24.954294	7.013582	37.471283	7.133867	26.892162	-3.227593	6.227727	-3.528733	50.572872	-32.490189	-5.879684	-14.408891	-2.180564	21.323055	-2.961167	22.802084	-44.081856	-13.222992	11.896014	-58.350178	-19.155287	-5.582333	2.520280	-1.184597	16.066822	15.912328	-2.399205	-26.661987	-34.416054	16.378134	-12.799685	-58.654781	17.593212	-11.709803	2.652507	-2.494960	32.353600	-36.594887	15.984363	0.664719	16.933228	9.027254	-11.975087	6.928319	2.487576	3.721189	-12.536083	13.116547	2.541206	-9.100009	12.543455	0.866975	-2.786257	4.946764	
302.222778	4.930295	1.115889	-26.902945	8.602742	37.016396	5.507223	27.102423	-3.131192	7.317872	-4.300724	50.610317	-32.914642	-6.677373	-15.133695	-0.945591	22.905037	-2.160810	23.836859	-47.447796	-13.434516	11.964099	-58.139931	-19.488008	-5.691138	2.522982	-1.207504	17.731800	15.531657	-2.645411	-26.794855	-34.325928	15.894567	-13.270975	-58.550163	18.603790	-14.285450	2.777459	-3.033908	33.575382	-38.885464	19.033985	0.582113	18.670546	8.489882	-10.865733	5.293270	1.928236	3.373335	-14.672545	14.513326	2.486341	-9.117059	11.866995	1.352299	-4.017458	4.946715	
302.895935	5.041895	0.905088	-28.482063	10.068263	37.545765	4.864191	27.351786	-3.376048	7.142311	-4.903830	48.967972	-32.633057	-7.142630	-15.249564	-0.681626	23.707230	-1.823221	25.454479	-50.123962	-13.476543	11.904689	-58.200779	-19.315170	-6.221715	2.534380	-1.319764	18.215166	15.849786	-3.134500	-26.730299	-34.870663	15.080074	-13.206899	-58.262230	18.786352	-14.403052	2.782741	-3.058324	33.864105	-40.609852	21.178179	0.299107	18.484119	7.459235	-9.686205	4.890823	1.627791	2.754300	-16.583683	14.866922	2.418501	-9.135122	11.039425	2.100821	-4.469483	4.934765	
303.694427	5.087558	0.710609	-29.743576	10.951038	38.417416	5.535457	27.522427	-3.934975	5.854321	-4.978624	46.571499	-31.957705	-7.121539	-14.843532	-0.891811	23.504671	-1.910393	25.742155	-51.372471	-13.850532	12.049817	-58.459591	-19.342688	-6.025131	2.529424	-1.278357	17.714186	16.583466	-3.791338	-27.011932	-35.743462	14.361272	-12.984465	-58.234596	18.379845	-14.071852	2.765513	-2.989388	33.092587	-41.066689	21.570879	-0.128495	16.897505	6.119227	-7.179082	2.559504	0.867275	2.118509	-17.766260	14.885503	2.327256	-9.154102	9.950211	2.664511	-5.103031	4.947312	
304.422638	5.063377	0.552855	-30.582872	11.414353	39.089996	5.971822	27.598904	-4.087920	4.878201	-4.760144	44.444210	-31.077295	-6.694441	-14.097546	-0.882715	22.966385	-2.299521	25.174671	-51.575153	-14.113685	12.245781	-58.732292	-19.447721	-5.382149	2.516253	-1.142245	17.156385	16.983458	-3.895311	-27.253317	-36.049133	13.593772	-12.395210	-58.352207	17.130020	-11.750802	2.654365	-2.503592	32.781448	-42.477463	22.163126	-0.240824	18.219303	5.432209	-6.479033	1.003081	0.591973	1.339312	-18.317543	15.473665	2.203383	-9.176299	8.512235	3.176050	-5.698410	4.970148	
